<?xml version="1.0" encoding="iso-8859-1"?>
<!-- Generator: Adobe Illustrator 19.0.0, SVG Export Plug-In . SVG Version: 6.00 Build 0)  -->
<svg version="1.1" id="Layer_1" xmlns="http://www.w3.org/2000/svg" xmlns:xlink="http://www.w3.org/1999/xlink" x="0px" y="0px"
	 viewBox="0 0 479.6 479.6" style="enable-background:new 0 0 479.6 479.6;" xml:space="preserve">
<polygon style="fill:#996632;" points="463.6,31.8 463.6,55.8 455.6,55.8 343.6,55.8 335.6,55.8 335.6,31.8 "/>
<path style="fill:#FFF8EF;" d="M447.6,71.8v328c0,26.4-21.6,48-48,48s-48-21.6-48-48h8c0,22.4,17.6,40,40,40s40-17.6,40-40v-200
	c0-4-4-8-8-8h-64c-4,0-8,4-8,8v130.4l-8-12V71.8h64v48h16v-48H447.6z M431.6,167.8v-24h-16v24H431.6z"/>
<rect x="415.6" y="143.8" style="fill:#0a2654;" width="16" height="24"/>
<path style="fill:#FF7D00;" d="M423.6,207.8v192c0,13.6-10.4,24-24,24s-24-10.4-24-24h16c3.2,0,5.6-1.6,7.2-4s1.6-5.6,0-8l-24-35.2
	h0.8V207.8H423.6z"/>
<path style="fill:#FF9900;" d="M399.6,415.8c-5.6,0-11.2-3.2-13.6-8h5.6c5.6,0,11.2-3.2,14.4-8.8c3.2-5.6,2.4-12-0.8-16.8
	l-21.6-30.4v-136h32v184C415.6,408.6,408.4,415.8,399.6,415.8z"/>
<path style="fill:#FFF8EF;" d="M249.2,196.6l127.2,187.2H22l120-188c1.6-0.8,1.6-2.4,1.6-4v-120h72v64h16v-64h16v120
	C247.6,193.4,248.4,195,249.2,196.6z M338,363.8c1.6-2.4,0.8-5.6-0.8-8l-83.2-120c-1.6-2.4-5.6-4-8.8-3.2l-21.6,4.8
	c-25.6,6.4-52,4.8-76.8-5.6c-3.2-1.6-8,0-9.6,3.2L59.6,355c-1.6,2.4-1.6,5.6,0,8c0.8,3.2,3.2,4.8,6.4,4.8h264.8
	C334,367.8,337.2,366.2,338,363.8z M231.6,175.8v-24h-16v24H231.6z"/>
<path style="fill:#0a2654;" d="M338,355c1.6,2.4,1.6,5.6,0.8,8c-1.6,2.4-4,4-7.2,4H66c-3.2,0-5.6-1.6-7.2-4s-1.6-5.6,0-8l77.6-120
	c2.4-3.2,6.4-4.8,9.6-3.2c24.8,9.6,51.2,12,76.8,5.6l22.4-5.6c3.2-0.8,6.4,0.8,8.8,3.2L338,355z M315.6,351.8l-72-103.2l-16.8,4
	c-27.2,6.4-54.4,5.6-80.8-3.2L80.4,351.8H315.6z"/>
<path style="fill:#67BC34;" d="M244.4,248.6l72,103.2h-236l66.4-102.4c26.4,8.8,53.6,10.4,80.8,3.2L244.4,248.6z M300.4,343.8
	l-60-85.6l-11.2,3.2c-12,3.2-24,4.8-36,4.8c-14.4,0-28.8-2.4-42.4-6.4l-55.2,84h56H300.4z"/>
<path style="fill:#7AC943;" d="M240.4,258.2l60,85.6H151.6c16,0,28-15.2,23.2-32c-2.4-7.2-8-12.8-15.2-15.2c-16-4.8-32,7.2-32,23.2
	c0,13.6,11.2,24,24,24h-56L150,259c13.6,4,28,6.4,42.4,6.4c12,0,24-1.6,36-4.8L240.4,258.2z M246,295.8
	c6.4-19.2-11.2-36.8-30.4-30.4c-7.2,2.4-12.8,8-15.2,15.2c-6.4,19.2,11.2,36.8,30.4,30.4C238.8,308.6,244.4,303,246,295.8z"/>
<polygon style="fill:#996632;" points="263.6,31.8 263.6,55.8 255.6,55.8 135.6,55.8 119.6,55.8 119.6,31.8 "/>
<g>
	<path style="fill:#0a2654;" d="M223.6,263.8c12.8,0,24,10.4,24,24s-11.2,24-24,24s-24-10.4-24-24S210.8,263.8,223.6,263.8z
		 M231.6,287.8c0-4-4-8-8-8s-8,4-8,8s4,8,8,8S231.6,291.8,231.6,287.8z"/>
	<rect x="215.6" y="151.8" style="fill:#0a2654;" width="16" height="24"/>
	<path style="fill:#0a2654;" d="M151.6,295.8c12.8,0,24,10.4,24,24s-11.2,24-24,24s-24-10.4-24-24S138.8,295.8,151.6,295.8z
		 M159.6,319.8c0-4-4-8-8-8s-8,4-8,8s4,8,8,8S159.6,323.8,159.6,319.8z"/>
	<path style="fill:#0a2654;" d="M465.2,15.8H334c-8,0-14.4,6.4-14.4,14.4v26.4c0,8,6.4,14.4,14.4,14.4h1.6v223.2l-72-105.6V71.8h1.6
		c8,0,14.4-6.4,14.4-14.4V30.2c0-8-6.4-14.4-14.4-14.4H118c-8,0-14.4,6.4-14.4,14.4v26.4c0,8,6.4,14.4,14.4,14.4h9.6v117.6
		L1.2,387.8c-1.6,2.4-1.6,5.6,0,8c0.8,2.4,3.2,4,6.4,4h328c0,35.2,28.8,64,64,64s64-28.8,64-64v-328h1.6c8,0,14.4-6.4,14.4-14.4
		V30.2C479.6,22.2,473.2,15.8,465.2,15.8z M119.6,55.8v-24h144v24h-8h-120H119.6z M22,383.8l120-188c1.6-0.8,1.6-2.4,1.6-4v-120h72
		v64h16v-64h16v120c0,1.6,0.8,3.2,1.6,4.8l127.2,187.2H22z M398,387l-22.4-32.8V207.8h48v192c0,12.8-10.4,24-24,24s-24-11.2-24-24
		h16c3.2,0,5.6-1.6,7.2-4C400.4,392.6,399.6,389.4,398,387z M447.6,399.8c0,26.4-21.6,48-48,48s-48-21.6-48-48h8
		c0,22.4,17.6,40,40,40s40-17.6,40-40v-200c0-4-4-8-8-8h-64c-4,0-8,4-8,8v130.4l-8-12V71.8h64v48h16v-48h16V399.8z M463.6,55.8h-8
		h-112h-8v-24h128V55.8z"/>
</g>
<g>
	<path style="fill:#875426;" d="M119.6,31.8l3.2,7.2c2.4,5.6,8,8.8,14.4,9.6l126.4,7.2h-144V31.8z"/>
	<path style="fill:#875426;" d="M353.2,48.6c-6.4,0-12-4-14.4-9.6l-3.2-7.2v24h8h112h8V55L353.2,48.6z"/>
</g>
<g>
	<path style="fill:#D9CDC1;" d="M171.6,199.8L171.6,199.8c-6.4,0-12-5.6-12-12v-116h24v116C183.6,194.2,178,199.8,171.6,199.8z"/>
	<path style="fill:#D9CDC1;" d="M379.6,167.8L379.6,167.8c-6.4,0-12-5.6-12-12v-84h24v84C391.6,162.2,386,167.8,379.6,167.8z"/>
</g>
<g>
</g>
<g>
</g>
<g>
</g>
<g>
</g>
<g>
</g>
<g>
</g>
<g>
</g>
<g>
</g>
<g>
</g>
<g>
</g>
<g>
</g>
<g>
</g>
<g>
</g>
<g>
</g>
<g>
</g>
</svg>
