<?xml version="1.0" standalone="no"?>
<!DOCTYPE svg PUBLIC "-//W3C//DTD SVG 20010904//EN"
 "http://www.w3.org/TR/2001/REC-SVG-20010904/DTD/svg10.dtd">
<svg version="1.0" xmlns="http://www.w3.org/2000/svg"
 width="1920.000000pt" height="1242.000000pt" viewBox="0 0 1920.000000 1242.000000"
 preserveAspectRatio="xMidYMid meet">

<g transform="translate(0.000000,1242.000000) scale(0.100000,-0.100000)"
fill="#0a2654" stroke="">
<path d="M12507 11956 c-43 -254 -119 -540 -211 -791 -47 -128 -176 -425 -185
-424 -3 0 -31 29 -61 65 -135 159 -407 403 -618 553 -1120 797 -2594 911
-3820 297 -371 -186 -668 -401 -968 -700 -605 -606 -958 -1335 -1070 -2211
-25 -196 -25 -632 -1 -835 20 -163 65 -400 101 -535 13 -49 23 -91 22 -93 -2
-1 -40 20 -86 48 -153 92 -298 211 -507 413 -61 60 -110 101 -107 90 2 -10 40
-218 84 -463 45 -245 83 -452 86 -461 8 -30 417 -228 740 -359 130 -52 131
-53 159 -104 52 -93 222 -339 311 -451 113 -142 439 -467 575 -574 570 -446
1156 -695 1869 -793 207 -28 676 -31 875 -5 645 85 1170 281 1685 631 339 230
683 568 935 921 294 412 508 909 610 1420 l26 130 88 90 c763 784 843 1907
227 3180 -186 383 -486 856 -683 1074 l-48 53 -28 -166z m322 -446 c666 -1069
880 -2127 586 -2890 -177 -460 -486 -799 -1111 -1217 -214 -144 -708 -432
-719 -421 -3 3 -10 74 -15 159 -38 573 -188 1177 -442 1772 l-59 139 143 147
c607 620 1045 1309 1282 2014 57 167 107 354 126 467 20 125 15 122 76 34 31
-43 90 -135 133 -204z m-2224 -3271 c189 -475 292 -937 321 -1431 l7 -118 -48
-20 c-27 -11 -125 -47 -220 -79 -566 -194 -1175 -310 -1835 -351 -91 -5 -191
-10 -224 -10 l-58 0 7 133 c7 140 -6 423 -31 667 -30 294 -30 277 -3 285 53
16 272 107 399 165 467 214 1041 580 1479 943 l95 78 28 -63 c16 -35 54 -124
83 -199z m-5378 -779 c170 -155 438 -303 718 -395 266 -88 522 -127 835 -126
291 0 566 35 858 110 80 21 114 26 117 18 7 -20 34 -316 40 -442 6 -102 -7
-350 -18 -361 -2 -2 -64 3 -138 12 -897 102 -1726 333 -2269 634 -52 29 -96
53 -97 54 -1 1 -27 118 -58 261 -31 143 -58 268 -61 278 -9 28 4 20 73 -43z"/>
<path d="M4205 3249 c-275 -42 -516 -221 -626 -465 -90 -199 -92 -470 -5 -667
120 -272 433 -467 748 -467 87 0 168 14 287 50 l71 21 0 235 0 234 -57 -46
c-148 -121 -326 -144 -489 -64 -244 120 -289 492 -82 686 71 66 142 96 247
102 135 7 239 -30 338 -121 l43 -40 0 236 0 235 -57 21 c-130 47 -303 68 -418
50z"/>
<path d="M18413 3229 c-185 -71 -242 -318 -107 -468 57 -63 127 -94 214 -95
143 -2 249 82 286 224 58 227 -170 425 -393 339z m214 -74 c148 -74 161 -290
24 -382 -178 -120 -399 43 -342 252 35 130 190 193 318 130z"/>
<path d="M18410 2960 l0 -150 30 0 c29 0 29 1 32 63 3 57 5 62 26 62 18 0 30
-13 55 -60 30 -56 35 -60 70 -63 l39 -3 -37 65 c-34 62 -35 66 -16 66 59 0 84
98 36 145 -23 23 -31 25 -130 25 l-105 0 0 -150z m188 88 c18 -18 14 -46 -7
-58 -11 -5 -42 -10 -70 -10 l-51 0 0 40 0 40 58 0 c32 0 63 -5 70 -12z"/>
<path d="M667 3213 c-4 -3 -7 -80 -7 -170 l0 -163 165 0 165 0 0 -595 0 -595
200 0 200 0 0 595 0 595 165 0 165 0 -2 168 -3 167 -521 3 c-286 1 -524 -1
-527 -5z"/>
<path d="M2167 3213 c-4 -3 -7 -348 -7 -765 l0 -758 435 0 435 0 0 165 0 165
-235 0 -235 0 0 135 0 135 225 0 225 0 0 165 0 165 -225 0 -225 0 0 130 0 130
235 0 235 0 0 170 0 170 -428 0 c-236 0 -432 -3 -435 -7z"/>
<path d="M5227 3213 c-4 -3 -7 -348 -7 -765 l0 -758 200 0 200 0 0 310 0 310
285 0 285 0 0 -310 0 -310 200 0 200 0 0 765 0 765 -197 -2 -198 -3 -3 -292
-2 -293 -285 0 -285 0 0 295 0 295 -193 0 c-107 0 -197 -3 -200 -7z"/>
<path d="M7157 3213 c-4 -3 -7 -348 -7 -765 l0 -758 200 0 200 0 2 468 3 467
364 -467 363 -468 199 0 199 0 0 765 0 765 -197 -2 -198 -3 -5 -464 -5 -464
-363 467 -363 466 -193 0 c-106 0 -196 -3 -199 -7z"/>
<path d="M9247 3213 c-4 -3 -7 -348 -7 -765 l0 -758 200 0 200 0 0 765 0 765
-193 0 c-107 0 -197 -3 -200 -7z"/>
<path d="M10207 3213 c-4 -3 -7 -348 -7 -765 l0 -758 200 0 200 0 0 300 0 300
220 0 220 0 0 165 0 165 -220 0 -220 0 0 130 0 130 240 0 240 0 0 170 0 170
-433 0 c-239 0 -437 -3 -440 -7z"/>
<path d="M11602 2668 c4 -602 4 -600 64 -722 98 -201 332 -307 643 -293 279
13 464 112 554 297 62 128 67 181 67 762 l0 508 -197 -2 -198 -3 -5 -505 c-4
-324 -10 -516 -17 -536 -44 -126 -114 -174 -250 -174 -122 1 -188 41 -233 143
-31 70 -40 215 -40 675 l0 402 -196 0 -195 0 3 -552z"/>
<path d="M13370 3050 l0 -170 165 0 165 0 0 -595 0 -595 195 0 195 0 0 595 0
595 165 0 165 0 0 170 0 170 -525 0 -525 0 0 -170z"/>
<path d="M14862 2678 c4 -519 5 -546 26 -621 12 -43 34 -101 49 -129 62 -113
188 -204 348 -250 108 -31 361 -33 470 -4 177 46 315 148 375 278 57 123 60
165 60 743 l0 525 -195 0 -195 0 0 -444 c0 -249 -5 -479 -10 -523 -15 -109
-51 -179 -114 -218 -47 -28 -55 -30 -151 -30 -94 0 -105 2 -143 28 -23 15 -53
44 -67 65 -50 75 -55 135 -55 650 l0 472 -201 0 -201 0 4 -542z"/>
<path d="M16750 2456 l0 -766 200 0 200 0 2 290 3 290 185 -290 185 -290 242
0 c134 0 243 3 243 6 0 3 -103 140 -230 305 -126 165 -230 304 -230 309 0 6 4
10 10 10 33 0 127 48 170 87 94 85 140 197 140 341 0 238 -111 382 -345 448
-50 14 -121 18 -417 21 l-358 5 0 -766z m616 423 c61 -30 94 -83 94 -152 0
-121 -72 -182 -231 -194 l-79 -6 0 193 0 193 83 -5 c62 -3 96 -11 133 -29z"/>
<path d="M10691 1080 c-27 -124 -151 -743 -151 -751 0 -5 20 -9 44 -9 l44 0
10 47 c6 27 29 144 53 261 23 117 45 209 49 205 4 -4 63 -126 130 -270 68
-144 126 -261 129 -259 3 2 62 124 131 269 69 146 127 263 130 261 3 -3 28
-119 55 -257 l51 -252 44 0 c39 0 45 3 42 20 -11 85 -160 787 -164 780 -3 -6
-68 -145 -143 -310 -75 -165 -140 -303 -144 -308 -4 -4 -67 124 -141 285 -176
388 -155 353 -169 288z"/>
<path d="M2440 722 l0 -402 45 0 45 0 0 297 0 298 258 -255 c141 -140 283
-280 315 -310 l57 -54 0 402 0 402 -45 0 -45 0 0 -302 0 -303 -315 315 -315
315 0 -403z"/>
<path d="M14730 721 l0 -401 45 0 45 0 2 298 3 297 313 -309 312 -310 0 403 0
402 -42 -3 -43 -3 -5 -293 -5 -292 -115 116 c-63 63 -204 201 -312 306 l-198
190 0 -401z"/>
<path d="M975 1096 c-167 -41 -286 -166 -317 -335 -21 -112 20 -229 112 -322
130 -130 315 -162 490 -83 l60 27 0 53 0 53 -51 -35 c-179 -120 -407 -59 -500
135 -33 66 -32 177 1 246 92 190 322 250 499 131 l51 -35 0 53 0 53 -55 27
c-93 45 -191 56 -290 32z"/>
<path d="M8780 1094 c-168 -45 -280 -164 -311 -330 -29 -157 69 -334 226 -408
120 -57 248 -57 375 0 l60 27 0 53 0 53 -51 -35 c-111 -74 -237 -83 -350 -23
-231 123 -231 435 0 558 113 60 239 51 350 -23 l51 -35 0 53 0 53 -54 26 c-99
48 -194 58 -296 31z"/>
<path d="M9750 1094 c-167 -45 -280 -164 -311 -328 -29 -157 69 -337 226 -410
218 -104 484 -12 583 201 36 79 38 209 3 296 -73 185 -301 295 -501 241z m243
-92 c61 -27 133 -95 165 -157 23 -43 27 -62 27 -135 0 -73 -4 -92 -27 -135
-32 -62 -103 -129 -166 -158 -71 -33 -198 -31 -272 4 -79 37 -125 81 -161 155
-108 219 65 464 318 450 41 -3 90 -13 116 -24z"/>
<path d="M16085 1094 c-299 -72 -412 -424 -208 -644 129 -140 333 -178 502
-93 l56 28 3 53 3 52 -60 -39 c-74 -47 -143 -65 -223 -58 -113 10 -222 89
-271 195 -30 65 -30 179 0 244 87 190 314 253 493 137 l61 -39 -3 52 c-3 51
-5 54 -47 77 -89 49 -196 61 -306 35z"/>
<path d="M17692 1091 c-104 -36 -158 -126 -132 -222 18 -67 54 -97 197 -165
106 -50 136 -69 153 -96 41 -68 14 -149 -65 -196 -83 -48 -192 -11 -231 78
-10 22 -20 40 -23 40 -3 0 -22 -5 -43 -10 l-36 -10 11 -38 c18 -58 92 -127
156 -146 68 -20 104 -20 170 0 95 28 171 126 171 220 0 98 -56 158 -205 223
-123 54 -142 66 -161 103 -20 39 -10 80 27 118 55 55 149 52 207 -6 32 -32 35
-33 62 -19 16 8 31 19 35 25 12 19 -72 88 -126 104 -67 20 -101 20 -167 -3z"/>
<path d="M1665 1088 c-3 -7 -4 -182 -3 -388 l3 -375 210 0 210 0 3 37 3 38
-168 2 -168 3 0 150 0 150 163 3 163 3 -3 37 -3 37 -163 3 -163 2 3 113 3 112
168 3 168 2 -3 38 -3 37 -208 3 c-161 2 -209 0 -212 -10z"/>
<path d="M3457 1094 c-4 -4 -7 -22 -7 -41 l0 -33 100 0 100 0 0 -350 0 -350
45 0 45 0 0 350 0 350 101 0 100 0 -3 38 -3 37 -236 3 c-129 1 -238 -1 -242
-4z"/>
<path d="M4225 1089 c-3 -8 -4 -183 -3 -389 l3 -375 43 -3 42 -3 0 170 c0 142
2 171 14 171 8 0 70 -76 137 -170 l123 -170 53 0 c41 0 52 3 46 13 -4 6 -61
84 -126 172 l-118 160 55 18 c73 24 120 76 136 150 26 114 -27 211 -133 242
-28 8 -99 18 -158 21 -88 6 -109 4 -114 -7z m260 -98 c69 -38 83 -145 28 -203
-32 -33 -78 -48 -150 -48 l-53 0 0 133 c0 74 3 137 7 141 12 12 136 -5 168
-23z"/>
<path d="M5000 710 l0 -390 210 0 210 0 0 40 0 40 -165 0 -165 0 0 155 0 155
160 0 160 0 0 40 0 40 -160 0 -160 0 0 115 0 115 165 0 165 0 0 40 0 40 -210
0 -210 0 0 -390z"/>
<path d="M6295 1087 c-3 -6 -4 -181 -3 -387 l3 -375 75 -3 c100 -4 223 12 294
39 82 30 175 122 206 204 32 84 32 206 0 290 -32 83 -123 173 -204 204 -101
38 -360 58 -371 28z m297 -88 c56 -15 130 -69 165 -122 112 -167 23 -406 -171
-458 -22 -6 -76 -12 -121 -12 l-80 -2 -3 295 c-1 162 0 301 3 309 4 11 22 12
88 7 45 -4 98 -11 119 -17z"/>
<path d="M7220 710 l0 -390 208 2 207 3 3 38 3 37 -165 0 -166 0 0 155 0 155
160 0 160 0 0 40 0 40 -160 0 -160 0 0 115 0 115 166 0 165 0 -3 38 -3 37
-207 3 -208 2 0 -390z"/>
<path d="M11755 1089 c-3 -8 -4 -183 -3 -389 l3 -375 45 0 45 0 3 168 2 167
53 0 c71 0 164 25 203 55 59 45 89 153 64 230 -17 50 -67 105 -117 127 -57 25
-290 38 -298 17z m273 -96 c40 -19 62 -59 62 -113 0 -87 -51 -129 -165 -137
l-75 -6 0 143 0 143 73 -7 c39 -4 87 -15 105 -23z"/>
<path d="M12490 710 l0 -390 210 0 210 0 0 40 0 40 -165 0 -165 0 0 155 0 155
160 0 160 0 0 40 0 40 -160 0 -160 0 0 115 0 115 165 0 165 0 0 40 0 40 -210
0 -210 0 0 -390z"/>
<path d="M13190 1060 l0 -40 95 0 95 0 2 -347 3 -348 42 -3 43 -3 2 348 3 348
98 3 97 3 0 39 0 40 -240 0 -240 0 0 -40z"/>
<path d="M13960 710 l0 -390 210 0 210 0 0 40 0 40 -165 0 -165 0 0 155 0 155
160 0 160 0 0 40 0 40 -160 0 -160 0 0 115 0 115 165 0 165 0 0 40 0 40 -210
0 -210 0 0 -390z"/>
<path d="M16780 710 l0 -390 210 0 210 0 0 40 0 40 -162 2 -163 3 0 150 0 150
158 3 157 3 0 39 0 40 -160 0 -161 0 3 113 3 112 163 3 162 2 0 40 0 40 -210
0 -210 0 0 -390z"/>
</g>
</svg>
